<?xml version="1.0" encoding="UTF-8" standalone="no"?>
<!DOCTYPE svg PUBLIC "-//W3C//DTD SVG 1.1//EN" "http://www.w3.org/Graphics/SVG/1.1/DTD/svg11.dtd">
<svg width="100%" height="100%" viewBox="0 0 1949 520" version="1.1" xmlns="http://www.w3.org/2000/svg" xmlns:xlink="http://www.w3.org/1999/xlink" xml:space="preserve" xmlns:serif="http://www.serif.com/" style="fill-rule:evenodd;clip-rule:evenodd;stroke-linejoin:round;stroke-miterlimit:2;">
    <g transform="matrix(1,0,0,1,-304.142,-2140.31)">
        <g transform="matrix(1,0,0,1,110.443,-152.141)">
            <g>
                <g transform="matrix(0.321599,0,0,0.321599,54.6838,2208.63)">
                    <g transform="matrix(1,0,0,1,43.8815,-70.986)">
                        <g>
                            <g transform="matrix(3.3576,0,0,3.3576,-5.13437,114.459)">
                                <path d="M511.704,305.299L378.284,171.878L378.284,85.146L598.436,305.299L378.284,525.451L378.284,438.719L511.704,305.299Z" style="fill:rgb(17,157,255);"/>
                            </g>
                            <g transform="matrix(-3.3576,4.11187e-16,-4.11187e-16,-3.3576,2397.69,2164.6)">
                                <path d="M511.704,305.299L378.284,171.878L378.284,85.146L598.436,305.299L378.284,525.451L378.284,438.719L511.704,305.299Z" style="fill:rgb(160,9,117);"/>
                            </g>
                        </g>
                        <g transform="matrix(1.12097,0,0,1.12097,-144.712,-137.847)">
                            <g transform="matrix(3.22306e-16,-5.26366,0.81167,4.97005e-17,197.716,7045.31)">
                                <path d="M1121.99,748.522L1196.28,1230.25L1047.71,1230.25L1121.99,748.522Z" style="fill:rgb(160,9,117);"/>
                            </g>
                            <g transform="matrix(3.22306e-16,5.26366,-0.81167,4.97005e-17,2194.84,-4766.25)">
                                <path d="M1121.99,748.522L1196.28,1230.25L1047.71,1230.25L1121.99,748.522Z" style="fill:rgb(17,157,255);"/>
                            </g>
                            <g id="plot_ly-icon" transform="matrix(6.10948,-6.10948,6.10948,6.10948,1196.28,1139.53)">
                                <g transform="matrix(1,0,0,1,-32,-32)">
                                    <g transform="matrix(0.137136,0.137136,-0.137136,0.137136,32,-13.2548)">
                                        <g>
                                            <g>
                                                <circle cx="195" cy="135" r="15" style="fill:rgb(37,254,253);"/>
                                                <circle cx="255" cy="75" r="15" style="fill:rgb(37,254,253);"/>
                                                <circle cx="195" cy="75" r="15" style="fill:rgb(37,254,253);"/>
                                                <circle cx="135" cy="75" r="15" style="fill:rgb(37,254,253);"/>
                                                <circle cx="75" cy="75" r="15" style="fill:rgb(37,254,253);"/>
                                                <circle cx="75" cy="135" r="15" style="fill:rgb(37,254,253);"/>
                                            </g>
                                            <path d="M75,180C66.771,180 60,186.771 60,195L60,255C60,263.229 66.771,270 75,270C83.229,270 90,263.229 90,255L90,195C90,186.771 83.229,180 75,180Z" style="fill:white;fill-rule:nonzero;"/>
                                            <path d="M195,180C186.771,180 180,186.771 180,195L180,255C180,263.229 186.771,270 195,270C203.229,270 210,263.229 210,255L210,195C210,186.771 203.229,180 195,180Z" style="fill:white;fill-rule:nonzero;"/>
                                            <path d="M135,120C126.771,120 120,126.771 120,135L120,255C120,263.229 126.771,270 135,270C143.229,270 150,263.229 150,255L150,135C150,126.771 143.229,120 135,120Z" style="fill:white;fill-rule:nonzero;"/>
                                            <path d="M255,120C246.771,120 240,126.771 240,135L240,255C240,263.229 246.771,270 255,270C263.229,270 270,263.229 270,255L270,135C270,126.771 263.229,120 255,120Z" style="fill:white;fill-rule:nonzero;"/>
                                        </g>
                                    </g>
                                </g>
                            </g>
                        </g>
                    </g>
                    <g transform="matrix(0.758347,0,0,0.819285,239.112,178.829)">
                        <rect x="254.697" y="99.863" width="2130.68" height="1972.2" style="fill:none;"/>
                    </g>
                </g>
                <g transform="matrix(1,0,0,1,-41.2801,79.5278)">
                    <g transform="matrix(300,0,0,300,801.851,2578.49)">
                        <path d="M0.087,-0.705L0.366,-0.705C0.44,-0.705 0.498,-0.687 0.539,-0.651C0.58,-0.615 0.6,-0.564 0.6,-0.498C0.6,-0.432 0.579,-0.381 0.538,-0.344C0.497,-0.307 0.439,-0.289 0.366,-0.289L0.169,-0.289L0.169,-0L0.087,-0L0.087,-0.705ZM0.358,-0.357C0.465,-0.357 0.519,-0.404 0.519,-0.498C0.519,-0.591 0.465,-0.637 0.358,-0.637L0.169,-0.637L0.169,-0.357L0.358,-0.357Z" style="fill:rgb(17,157,255);fill-rule:nonzero;"/>
                    </g>
                    <g transform="matrix(300,0,0,300,995.351,2578.49)">
                        <rect x="0.075" y="-0.705" width="0.081" height="0.705" style="fill:rgb(17,157,255);fill-rule:nonzero;"/>
                    </g>
                    <g transform="matrix(300,0,0,300,1064.95,2578.49)">
                        <path d="M0.277,0.007C0.231,0.007 0.191,-0.003 0.156,-0.024C0.121,-0.045 0.094,-0.074 0.075,-0.113C0.056,-0.151 0.046,-0.195 0.046,-0.246C0.046,-0.297 0.056,-0.341 0.075,-0.38C0.094,-0.418 0.121,-0.447 0.156,-0.468C0.191,-0.489 0.231,-0.499 0.277,-0.499C0.323,-0.499 0.364,-0.489 0.399,-0.468C0.434,-0.447 0.462,-0.418 0.481,-0.38C0.5,-0.341 0.509,-0.297 0.509,-0.246C0.509,-0.195 0.5,-0.151 0.481,-0.113C0.462,-0.074 0.434,-0.045 0.399,-0.024C0.364,-0.003 0.323,0.007 0.277,0.007ZM0.277,-0.06C0.325,-0.06 0.362,-0.076 0.388,-0.108C0.413,-0.139 0.426,-0.185 0.426,-0.246C0.426,-0.305 0.413,-0.351 0.387,-0.384C0.361,-0.416 0.324,-0.432 0.277,-0.432C0.23,-0.432 0.193,-0.416 0.167,-0.384C0.141,-0.351 0.128,-0.305 0.128,-0.246C0.128,-0.186 0.141,-0.14 0.167,-0.108C0.192,-0.076 0.229,-0.06 0.277,-0.06Z" style="fill:rgb(17,157,255);fill-rule:nonzero;"/>
                    </g>
                    <g transform="matrix(300,0,0,300,1231.15,2578.49)">
                        <path d="M0.289,-0.058C0.304,-0.058 0.318,-0.059 0.333,-0.061L0.329,0.003C0.314,0.006 0.297,0.007 0.279,0.007C0.22,0.007 0.176,-0.008 0.147,-0.039C0.117,-0.07 0.102,-0.112 0.102,-0.167L0.102,-0.423L0.007,-0.423L0.007,-0.487L0.102,-0.487L0.102,-0.635L0.183,-0.635L0.183,-0.487L0.321,-0.487L0.321,-0.423L0.183,-0.423L0.183,-0.173C0.183,-0.096 0.218,-0.058 0.289,-0.058Z" style="fill:rgb(17,157,255);fill-rule:nonzero;"/>
                    </g>
                    <g transform="matrix(300,0,0,300,1333.15,2578.49)">
                        <rect x="0.075" y="-0.705" width="0.081" height="0.705" style="fill:rgb(17,157,255);fill-rule:nonzero;"/>
                    </g>
                    <g transform="matrix(300,0,0,300,1402.75,2578.49)">
                        <path d="M0.424,-0.486L0.505,-0.486L0.217,0.18L0.134,0.18L0.216,-0.006L0.01,-0.486L0.096,-0.486L0.259,-0.088L0.424,-0.486Z" style="fill:rgb(17,157,255);fill-rule:nonzero;"/>
                    </g>
                    <g transform="matrix(300,0,0,300,1546.15,2578.49)">
                        <rect x="0.063" y="-0.102" width="0.102" height="0.102" style="fill:rgb(160,9,117);fill-rule:nonzero;"/>
                    </g>
                    <g transform="matrix(300,0,0,300,1614.85,2578.49)">
                        <path d="M0.575,-0.705L0.652,-0.705L0.652,-0L0.589,-0L0.164,-0.567L0.164,-0L0.087,-0L0.087,-0.705L0.15,-0.705L0.575,-0.138L0.575,-0.705Z" style="fill:rgb(160,9,117);fill-rule:nonzero;"/>
                    </g>
                    <g transform="matrix(300,0,0,300,1836.55,2578.49)">
                        <path d="M0.087,-0L0.087,-0.705L0.533,-0.705L0.533,-0.637L0.168,-0.637L0.168,-0.392L0.513,-0.392L0.513,-0.324L0.168,-0.324L0.168,-0.068L0.533,-0.068L0.533,-0L0.087,-0Z" style="fill:rgb(160,9,117);fill-rule:nonzero;"/>
                    </g>
                    <g transform="matrix(300,0,0,300,2007.55,2578.49)">
                        <path d="M0.257,-0L0.257,-0.635L0.012,-0.635L0.012,-0.705L0.586,-0.705L0.586,-0.635L0.34,-0.635L0.34,-0L0.257,-0Z" style="fill:rgb(160,9,117);fill-rule:nonzero;"/>
                    </g>
                </g>
            </g>
        </g>
    </g>
</svg>
